<svg xmlns="http://www.w3.org/2000/svg" xmlns:xlink="http://www.w3.org/1999/xlink" width="1000" zoomAndPan="magnify" viewBox="0 0 750 749.999995" height="1000" preserveAspectRatio="xMidYMid meet" version="1.0"><defs><clipPath id="f8849d64bb"><path d="M 0.00390625 176.945312 L 561.796875 176.945312 L 561.796875 740.953125 L 0.00390625 740.953125 Z M 0.00390625 176.945312 " clip-rule="nonzero"/></clipPath><clipPath id="d02392dbe4"><path d="M 30.046875 176.945312 L 531.75 176.945312 C 548.34375 176.945312 561.792969 190.398438 561.792969 206.996094 L 561.792969 710.898438 C 561.792969 727.496094 548.34375 740.953125 531.75 740.953125 L 30.046875 740.953125 C 13.453125 740.953125 0.00390625 727.496094 0.00390625 710.898438 L 0.00390625 206.996094 C 0.00390625 190.398438 13.453125 176.945312 30.046875 176.945312 " clip-rule="nonzero"/></clipPath><clipPath id="681e9f0187"><path d="M 182.976562 10.054688 L 749 10.054688 L 749 574 L 182.976562 574 Z M 182.976562 10.054688 " clip-rule="nonzero"/></clipPath><clipPath id="866ce6e8e8"><path d="M 212.976562 10.054688 L 720 10.054688 C 736.570312 10.054688 750 23.484375 750 40.054688 L 750 543.054688 C 750 559.625 736.570312 573.054688 720 573.054688 L 212.976562 573.054688 C 196.40625 573.054688 182.976562 559.625 182.976562 543.054688 L 182.976562 40.054688 C 182.976562 23.484375 196.40625 10.054688 212.976562 10.054688 " clip-rule="nonzero"/></clipPath><clipPath id="0ab46d3669"><path d="M 246 129 L 687 129 L 687 453.820312 L 246 453.820312 Z M 246 129 " clip-rule="nonzero"/></clipPath></defs><g clip-path="url(#f8849d64bb)"><g clip-path="url(#d02392dbe4)"><path stroke-linecap="butt" transform="matrix(2.215066, 0, 0, 2.215869, 0.00309188, 176.943703)" fill="none" stroke-linejoin="miter" d="M 13.563378 0.000726542 L 240.059133 0.000726542 C 247.550443 0.000726542 253.622143 6.07199 253.622143 13.562349 L 253.622143 240.96852 C 253.622143 248.458879 247.550443 254.531905 240.059133 254.531905 L 13.563378 254.531905 C 6.072068 254.531905 0.000367653 248.458879 0.000367653 240.96852 L 0.000367653 13.562349 C 0.000367653 6.07199 6.072068 0.000726542 13.563378 0.000726542 " stroke="#454fbf" stroke-width="9.494545" stroke-opacity="1" stroke-miterlimit="4"/></g></g><g clip-path="url(#681e9f0187)"><g clip-path="url(#866ce6e8e8)"><path fill="#454fbf" d="M 182.976562 10.054688 L 748.019531 10.054688 L 748.019531 575.097656 L 182.976562 575.097656 Z M 182.976562 10.054688 " fill-opacity="1" fill-rule="nonzero"/></g></g><path fill="#5865f2" d="M 466.488281 411.480469 C 555.511719 411.480469 613.113281 369.660156 613.113281 369.660156 C 613.113281 369.660156 597.40625 406.253906 550.273438 421.933594 L 565.984375 448.070312 C 647.230469 445.457031 681.191406 391.316406 681.191406 391.316406 C 681.191406 271.09375 628.25 173.644531 628.25 173.644531 C 575.304688 133.324219 524.941406 134.441406 524.941406 134.441406 L 518.855469 139.664062 C 581.355469 159.078125 607.878906 191.9375 607.878906 191.9375 C 569.644531 170.65625 524.089844 155.34375 466.488281 155.34375 C 408.882812 155.34375 363.332031 170.65625 325.097656 191.9375 C 325.097656 191.9375 351.621094 159.078125 414.121094 139.664062 L 408.03125 134.441406 C 408.03125 134.441406 357.664062 133.324219 304.722656 173.644531 C 304.722656 173.644531 251.777344 271.097656 251.777344 391.316406 C 251.777344 391.316406 285.738281 445.457031 366.984375 448.070312 L 382.695312 421.933594 C 335.566406 406.253906 319.855469 369.660156 319.855469 369.660156 C 319.855469 369.660156 377.464844 411.480469 466.488281 411.480469 Z M 466.488281 411.480469 " fill-opacity="1" fill-rule="nonzero"/><path fill="#454fbf" d="M 571.222656 317.390625 C 571.222656 318.757812 571.160156 320.125 571.03125 321.488281 C 570.90625 322.851562 570.71875 324.203125 570.46875 325.546875 C 570.214844 326.890625 569.902344 328.21875 569.53125 329.527344 C 569.15625 330.839844 568.722656 332.128906 568.230469 333.390625 C 567.738281 334.65625 567.191406 335.894531 566.582031 337.101562 C 565.976562 338.308594 565.316406 339.484375 564.601562 340.621094 C 563.886719 341.761719 563.121094 342.859375 562.304688 343.917969 C 561.492188 344.976562 560.628906 345.992188 559.71875 346.960938 C 558.808594 347.925781 557.855469 348.847656 556.863281 349.714844 C 555.867188 350.585938 554.835938 351.398438 553.765625 352.160156 C 552.695312 352.921875 551.59375 353.625 550.460938 354.269531 C 549.324219 354.914062 548.164062 355.5 546.976562 356.023438 C 545.789062 356.546875 544.578125 357.007812 543.347656 357.40625 C 542.117188 357.804688 540.871094 358.136719 539.609375 358.402344 C 538.347656 358.671875 537.074219 358.871094 535.796875 359.007812 C 534.515625 359.140625 533.234375 359.207031 531.945312 359.207031 C 530.660156 359.207031 529.375 359.140625 528.097656 359.007812 C 526.816406 358.871094 525.546875 358.671875 524.285156 358.402344 C 523.023438 358.136719 521.777344 357.804688 520.546875 357.40625 C 519.316406 357.007812 518.105469 356.546875 516.917969 356.023438 C 515.726562 355.5 514.566406 354.914062 513.433594 354.269531 C 512.296875 353.625 511.195312 352.921875 510.125 352.160156 C 509.058594 351.398438 508.023438 350.585938 507.03125 349.714844 C 506.035156 348.847656 505.085938 347.925781 504.175781 346.960938 C 503.265625 345.992188 502.402344 344.976562 501.585938 343.917969 C 500.769531 342.859375 500.003906 341.761719 499.289062 340.621094 C 498.574219 339.484375 497.914062 338.308594 497.308594 337.101562 C 496.703125 335.894531 496.152344 334.65625 495.660156 333.390625 C 495.167969 332.128906 494.734375 330.839844 494.363281 329.527344 C 493.988281 328.21875 493.675781 326.890625 493.425781 325.546875 C 493.175781 324.203125 492.988281 322.851562 492.859375 321.488281 C 492.734375 320.125 492.671875 318.757812 492.671875 317.390625 C 492.671875 316.019531 492.734375 314.652344 492.859375 313.289062 C 492.988281 311.925781 493.175781 310.574219 493.425781 309.230469 C 493.675781 307.886719 493.988281 306.5625 494.363281 305.25 C 494.734375 303.941406 495.167969 302.652344 495.660156 301.386719 C 496.152344 300.121094 496.703125 298.882812 497.308594 297.675781 C 497.914062 296.46875 498.574219 295.296875 499.289062 294.15625 C 500.003906 293.019531 500.769531 291.917969 501.585938 290.859375 C 502.402344 289.800781 503.265625 288.789062 504.175781 287.820312 C 505.085938 286.851562 506.035156 285.933594 507.03125 285.0625 C 508.023438 284.195312 509.058594 283.378906 510.125 282.621094 C 511.195312 281.859375 512.296875 281.15625 513.433594 280.507812 C 514.566406 279.863281 515.726562 279.277344 516.917969 278.753906 C 518.105469 278.230469 519.316406 277.769531 520.546875 277.371094 C 521.777344 276.976562 523.023438 276.640625 524.285156 276.375 C 525.546875 276.109375 526.816406 275.90625 528.097656 275.773438 C 529.375 275.640625 530.660156 275.570312 531.945312 275.570312 C 533.234375 275.570312 534.515625 275.640625 535.796875 275.773438 C 537.074219 275.90625 538.347656 276.109375 539.609375 276.375 C 540.871094 276.640625 542.117188 276.976562 543.347656 277.371094 C 544.578125 277.769531 545.789062 278.230469 546.976562 278.753906 C 548.164062 279.277344 549.324219 279.863281 550.460938 280.507812 C 551.59375 281.15625 552.695312 281.859375 553.765625 282.621094 C 554.835938 283.378906 555.867188 284.195312 556.863281 285.0625 C 557.855469 285.933594 558.808594 286.851562 559.71875 287.820312 C 560.628906 288.789062 561.492188 289.800781 562.304688 290.859375 C 563.121094 291.917969 563.886719 293.019531 564.601562 294.15625 C 565.316406 295.296875 565.976562 296.46875 566.582031 297.675781 C 567.191406 298.882812 567.738281 300.121094 568.230469 301.386719 C 568.722656 302.652344 569.15625 303.941406 569.53125 305.25 C 569.902344 306.5625 570.214844 307.886719 570.46875 309.230469 C 570.71875 310.574219 570.90625 311.925781 571.03125 313.289062 C 571.160156 314.652344 571.222656 316.019531 571.222656 317.390625 Z M 571.222656 317.390625 " fill-opacity="1" fill-rule="nonzero"/><path fill="#454fbf" d="M 440.304688 317.390625 C 440.304688 318.757812 440.242188 320.125 440.117188 321.488281 C 439.988281 322.851562 439.800781 324.203125 439.550781 325.546875 C 439.300781 326.890625 438.988281 328.21875 438.613281 329.527344 C 438.238281 330.839844 437.808594 332.128906 437.316406 333.390625 C 436.824219 334.65625 436.273438 335.894531 435.667969 337.101562 C 435.0625 338.308594 434.398438 339.484375 433.683594 340.621094 C 432.972656 341.761719 432.207031 342.859375 431.390625 343.917969 C 430.574219 344.976562 429.710938 345.992188 428.800781 346.960938 C 427.890625 347.925781 426.941406 348.847656 425.945312 349.714844 C 424.949219 350.585938 423.917969 351.398438 422.847656 352.160156 C 421.78125 352.921875 420.679688 353.625 419.542969 354.269531 C 418.410156 354.914062 417.246094 355.5 416.058594 356.023438 C 414.871094 356.546875 413.660156 357.007812 412.429688 357.40625 C 411.199219 357.804688 409.953125 358.136719 408.691406 358.402344 C 407.429688 358.671875 406.160156 358.871094 404.878906 359.007812 C 403.597656 359.140625 402.316406 359.207031 401.03125 359.207031 C 399.742188 359.207031 398.460938 359.140625 397.179688 359.007812 C 395.898438 358.871094 394.628906 358.671875 393.367188 358.402344 C 392.105469 358.136719 390.859375 357.804688 389.628906 357.40625 C 388.398438 357.007812 387.1875 356.546875 386 356.023438 C 384.8125 355.5 383.648438 354.914062 382.515625 354.269531 C 381.378906 353.625 380.277344 352.921875 379.210938 352.160156 C 378.140625 351.398438 377.109375 350.585938 376.113281 349.714844 C 375.121094 348.847656 374.167969 347.925781 373.257812 346.960938 C 372.347656 345.992188 371.484375 344.976562 370.667969 343.917969 C 369.851562 342.859375 369.089844 341.761719 368.375 340.621094 C 367.660156 339.484375 367 338.308594 366.390625 337.101562 C 365.785156 335.894531 365.234375 334.65625 364.742188 333.390625 C 364.25 332.128906 363.820312 330.839844 363.445312 329.527344 C 363.070312 328.21875 362.761719 326.890625 362.507812 325.546875 C 362.257812 324.203125 362.070312 322.851562 361.945312 321.488281 C 361.816406 320.125 361.753906 318.757812 361.753906 317.390625 C 361.753906 316.019531 361.816406 314.652344 361.945312 313.289062 C 362.070312 311.925781 362.257812 310.574219 362.507812 309.230469 C 362.761719 307.886719 363.070312 306.5625 363.445312 305.25 C 363.820312 303.941406 364.25 302.652344 364.742188 301.386719 C 365.234375 300.121094 365.785156 298.882812 366.390625 297.675781 C 367 296.46875 367.660156 295.296875 368.375 294.15625 C 369.089844 293.019531 369.851562 291.917969 370.667969 290.859375 C 371.484375 289.800781 372.347656 288.789062 373.257812 287.820312 C 374.167969 286.851562 375.121094 285.933594 376.113281 285.0625 C 377.109375 284.195312 378.140625 283.378906 379.210938 282.621094 C 380.277344 281.859375 381.378906 281.15625 382.515625 280.507812 C 383.648438 279.863281 384.8125 279.277344 386 278.753906 C 387.1875 278.230469 388.398438 277.769531 389.628906 277.371094 C 390.859375 276.976562 392.105469 276.640625 393.367188 276.375 C 394.628906 276.109375 395.898438 275.90625 397.179688 275.773438 C 398.460938 275.640625 399.742188 275.570312 401.03125 275.570312 C 402.316406 275.570312 403.597656 275.640625 404.878906 275.773438 C 406.160156 275.90625 407.429688 276.109375 408.691406 276.375 C 409.953125 276.640625 411.199219 276.976562 412.429688 277.371094 C 413.660156 277.769531 414.871094 278.230469 416.058594 278.753906 C 417.246094 279.277344 418.410156 279.863281 419.542969 280.507812 C 420.679688 281.15625 421.78125 281.859375 422.847656 282.621094 C 423.917969 283.378906 424.949219 284.195312 425.945312 285.0625 C 426.941406 285.933594 427.890625 286.851562 428.800781 287.820312 C 429.710938 288.789062 430.574219 289.800781 431.390625 290.859375 C 432.207031 291.917969 432.972656 293.019531 433.683594 294.15625 C 434.398438 295.296875 435.0625 296.46875 435.667969 297.675781 C 436.273438 298.882812 436.824219 300.121094 437.316406 301.386719 C 437.808594 302.652344 438.238281 303.941406 438.613281 305.25 C 438.988281 306.5625 439.300781 307.886719 439.550781 309.230469 C 439.800781 310.574219 439.988281 311.925781 440.117188 313.289062 C 440.242188 314.652344 440.304688 316.019531 440.304688 317.390625 Z M 440.304688 317.390625 " fill-opacity="1" fill-rule="nonzero"/><g clip-path="url(#0ab46d3669)"><path fill="#23272a" d="M 565.984375 453.296875 C 564.148438 453.296875 562.441406 452.335938 561.496094 450.761719 L 545.785156 424.625 C 544.96875 423.265625 544.8125 421.609375 545.367188 420.121094 C 545.914062 418.636719 547.117188 417.480469 548.621094 416.972656 C 571.457031 409.375 586.558594 396.613281 595.859375 385.964844 C 571.335938 398.648438 525.964844 416.707031 466.488281 416.707031 C 407.097656 416.707031 361.78125 398.703125 337.230469 386.027344 C 346.5625 396.675781 361.65625 409.425781 384.355469 416.972656 C 385.859375 417.476562 387.0625 418.628906 387.609375 420.121094 C 388.15625 421.609375 388.003906 423.265625 387.1875 424.625 L 371.480469 450.761719 C 370.5 452.386719 368.613281 453.398438 366.816406 453.296875 C 283.738281 450.621094 248.792969 396.398438 247.34375 394.09375 C 246.824219 393.261719 246.546875 392.300781 246.546875 391.316406 C 246.546875 271.15625 299.585938 172.136719 300.117188 171.152344 C 300.46875 170.5 300.957031 169.933594 301.542969 169.488281 C 355.34375 128.507812 405.988281 129.171875 408.140625 129.214844 C 409.351562 129.242188 410.519531 129.683594 411.433594 130.472656 L 417.523438 135.703125 C 418.96875 136.941406 419.625 138.863281 419.242188 140.726562 C 418.855469 142.585938 417.488281 144.089844 415.664062 144.65625 C 392.683594 151.796875 374.695312 160.792969 361.210938 169.21875 C 394.53125 156.402344 429.285156 150.117188 466.488281 150.117188 C 503.632812 150.117188 538.335938 156.375 571.597656 169.15625 C 558.109375 160.738281 540.152344 151.753906 517.300781 144.65625 C 515.476562 144.089844 514.117188 142.585938 513.722656 140.726562 C 513.339844 138.863281 513.996094 136.941406 515.441406 135.703125 L 521.53125 130.472656 C 522.445312 129.683594 523.609375 129.242188 524.824219 129.214844 C 526.964844 129.183594 577.617188 128.503906 631.421875 169.488281 C 632.007812 169.933594 632.496094 170.503906 632.847656 171.152344 C 633.390625 172.136719 686.429688 271.15625 686.429688 391.316406 C 686.429688 392.300781 686.152344 393.261719 685.632812 394.09375 C 684.183594 396.398438 649.238281 450.621094 566.152344 453.296875 C 566.09375 453.296875 566.042969 453.296875 565.984375 453.296875 Z M 558.035156 424.6875 L 568.871094 442.71875 C 637.496094 439.320312 670.515625 397.3125 675.945312 389.707031 C 675.5 279.1875 629.546875 187.476562 624.152344 177.105469 C 589 150.640625 555.066406 142.875 537.476562 140.597656 C 588.617188 160.3125 610.925781 187.394531 611.945312 188.652344 C 613.523438 190.601562 613.492188 193.390625 611.875 195.300781 C 610.253906 197.214844 607.507812 197.71875 605.316406 196.5 C 561.890625 172.328125 516.476562 160.574219 466.488281 160.574219 C 416.5 160.574219 371.085938 172.328125 327.648438 196.503906 C 325.464844 197.722656 322.710938 197.21875 321.089844 195.308594 C 319.472656 193.394531 319.445312 190.609375 321.019531 188.660156 C 322.027344 187.398438 344.320312 160.34375 395.394531 140.636719 C 377.746094 142.953125 343.792969 150.769531 308.8125 177.105469 C 303.421875 187.492188 257.464844 279.308594 257.019531 389.714844 C 262.449219 397.324219 295.46875 439.324219 364.09375 442.722656 L 374.929688 424.695312 C 330.847656 407.515625 315.6875 373.238281 315.039062 371.726562 C 314.105469 369.5625 314.738281 367.054688 316.582031 365.585938 C 318.425781 364.117188 321.027344 364.058594 322.929688 365.4375 C 323.5 365.839844 380.367188 406.253906 466.488281 406.253906 C 552.609375 406.253906 609.476562 365.839844 610.035156 365.433594 C 611.941406 364.054688 614.542969 364.109375 616.382812 365.578125 C 618.226562 367.046875 618.859375 369.558594 617.925781 371.722656 C 617.277344 373.238281 602.117188 407.515625 558.035156 424.6875 Z M 558.035156 424.6875 " fill-opacity="1" fill-rule="nonzero"/></g><path fill="#23272a" d="M 531.945312 364.433594 C 507.402344 364.433594 487.433594 343.328125 487.433594 317.390625 C 487.433594 291.453125 507.402344 270.34375 531.945312 270.34375 C 556.492188 270.34375 576.457031 291.453125 576.457031 317.390625 C 576.457031 343.328125 556.492188 364.433594 531.945312 364.433594 Z M 531.945312 280.800781 C 513.179688 280.800781 497.90625 297.210938 497.90625 317.390625 C 497.90625 337.566406 513.179688 353.980469 531.945312 353.980469 C 550.714844 353.980469 565.984375 337.566406 565.984375 317.390625 C 565.984375 297.210938 550.714844 280.800781 531.945312 280.800781 Z M 531.945312 280.800781 " fill-opacity="1" fill-rule="nonzero"/><path fill="#23272a" d="M 401.03125 364.433594 C 376.484375 364.433594 356.519531 343.328125 356.519531 317.390625 C 356.519531 291.453125 376.484375 270.34375 401.03125 270.34375 C 425.574219 270.34375 445.542969 291.453125 445.542969 317.390625 C 445.542969 343.328125 425.574219 364.433594 401.03125 364.433594 Z M 401.03125 280.800781 C 382.261719 280.800781 366.992188 297.210938 366.992188 317.390625 C 366.992188 337.566406 382.261719 353.980469 401.03125 353.980469 C 419.796875 353.980469 435.066406 337.566406 435.066406 317.390625 C 435.066406 297.210938 419.796875 280.800781 401.03125 280.800781 Z M 401.03125 280.800781 " fill-opacity="1" fill-rule="nonzero"/><path fill="#23272a" d="M 594.785156 214.261719 C 594.355469 214.261719 593.921875 214.15625 593.523438 213.9375 C 592.539062 213.394531 591.546875 212.902344 590.554688 212.410156 L 588.339844 211.292969 C 587.058594 210.625 586.558594 209.042969 587.230469 207.765625 C 587.90625 206.488281 589.503906 205.992188 590.765625 206.660156 L 592.886719 207.734375 C 593.945312 208.261719 595 208.785156 596.046875 209.363281 C 597.316406 210.058594 597.777344 211.648438 597.082031 212.914062 C 596.605469 213.769531 595.707031 214.261719 594.785156 214.261719 Z M 594.785156 214.261719 " fill-opacity="1" fill-rule="nonzero"/><path fill="#23272a" d="M 579.078125 206.285156 C 578.703125 206.285156 578.316406 206.207031 577.960938 206.035156 C 569.828125 202.210938 561.34375 198.792969 552.039062 195.578125 C 550.667969 195.109375 549.949219 193.617188 550.417969 192.253906 C 550.886719 190.894531 552.390625 190.179688 553.746094 190.640625 C 563.242188 193.910156 571.886719 197.402344 580.191406 201.308594 C 581.5 201.925781 582.0625 203.484375 581.445312 204.785156 C 581 205.730469 580.0625 206.285156 579.078125 206.285156 Z M 579.078125 206.285156 " fill-opacity="1" fill-rule="nonzero"/><path fill="#23272a" d="M 338.1875 214.261719 C 337.265625 214.261719 336.367188 213.769531 335.894531 212.90625 C 335.199219 211.640625 335.664062 210.054688 336.925781 209.359375 C 377.546875 187.078125 419.921875 176.253906 466.488281 176.253906 C 493.207031 176.253906 518.285156 179.855469 543.167969 187.261719 C 544.554688 187.675781 545.34375 189.128906 544.933594 190.515625 C 544.519531 191.894531 543.058594 192.695312 541.675781 192.269531 C 517.277344 185.011719 492.6875 181.480469 466.488281 181.480469 C 420.828125 181.480469 379.277344 192.097656 339.453125 213.933594 C 339.046875 214.152344 338.617188 214.261719 338.1875 214.261719 Z M 338.1875 214.261719 " fill-opacity="1" fill-rule="nonzero"/></svg>