<svg xmlns="http://www.w3.org/2000/svg" xmlns:xlink="http://www.w3.org/1999/xlink" width="1000" zoomAndPan="magnify" viewBox="0 0 750 749.999995" height="1000" preserveAspectRatio="xMidYMid meet" version="1.0"><defs><clipPath id="43d06e7240"><path d="M 76.367188 108.078125 L 637.363281 108.078125 L 637.363281 671.328125 L 76.367188 671.328125 Z M 76.367188 108.078125 " clip-rule="nonzero"/></clipPath><clipPath id="2f29910e83"><path d="M 106.367188 108.078125 L 607.359375 108.078125 C 623.929688 108.078125 637.359375 121.515625 637.359375 138.09375 L 637.359375 641.316406 C 637.359375 657.894531 623.929688 671.328125 607.359375 671.328125 L 106.367188 671.328125 C 89.796875 671.328125 76.367188 657.894531 76.367188 641.316406 L 76.367188 138.09375 C 76.367188 121.515625 89.796875 108.078125 106.367188 108.078125 " clip-rule="nonzero"/></clipPath><clipPath id="6a2752475e"><path d="M 106.613281 78.917969 L 672 78.917969 L 672 642 L 106.613281 642 Z M 106.613281 78.917969 " clip-rule="nonzero"/></clipPath><clipPath id="9d302c694b"><path d="M 136.613281 78.917969 L 643.636719 78.917969 C 660.203125 78.917969 673.636719 92.347656 673.636719 108.917969 L 673.636719 611.921875 C 673.636719 628.488281 660.203125 641.921875 643.636719 641.921875 L 136.613281 641.921875 C 120.042969 641.921875 106.613281 628.488281 106.613281 611.921875 L 106.613281 108.917969 C 106.613281 92.347656 120.042969 78.917969 136.613281 78.917969 " clip-rule="nonzero"/></clipPath></defs><g clip-path="url(#43d06e7240)"><g clip-path="url(#2f29910e83)"><path stroke-linecap="butt" transform="matrix(0.750016, 0, 0, 0.750343, 76.367027, 108.080076)" fill="none" stroke-linejoin="miter" d="M 39.999383 -0.00260059 L 707.975083 -0.00260059 C 730.068374 -0.00260059 747.974252 17.905869 747.974252 39.999923 L 747.974252 710.656498 C 747.974252 732.750552 730.068374 750.653816 707.975083 750.653816 L 39.999383 750.653816 C 17.906092 750.653816 0.000214091 732.750552 0.000214091 710.656498 L 0.000214091 39.999923 C 0.000214091 17.905869 17.906092 -0.00260059 39.999383 -0.00260059 " stroke="#454fbf" stroke-width="28" stroke-opacity="1" stroke-miterlimit="4"/></g></g><g clip-path="url(#6a2752475e)"><g clip-path="url(#9d302c694b)"><path fill="#454fbf" d="M 106.613281 78.917969 L 671.65625 78.917969 L 671.65625 643.960938 L 106.613281 643.960938 Z M 106.613281 78.917969 " fill-opacity="1" fill-rule="nonzero"/></g></g><path fill="#6c78ff" d="M 390.195312 480.660156 C 479.253906 480.660156 536.878906 438.796875 536.878906 438.796875 C 536.878906 438.796875 521.160156 475.429688 474.015625 491.128906 L 489.730469 517.292969 C 571.007812 514.675781 604.980469 460.476562 604.980469 460.476562 C 604.980469 340.117188 552.019531 242.558594 552.019531 242.558594 C 499.054688 202.191406 448.667969 203.3125 448.667969 203.3125 L 442.582031 208.539062 C 505.105469 227.976562 531.640625 260.871094 531.640625 260.871094 C 493.390625 239.566406 447.820312 224.238281 390.195312 224.238281 C 332.570312 224.238281 286.996094 239.566406 248.75 260.871094 C 248.75 260.871094 275.285156 227.976562 337.808594 208.539062 L 331.714844 203.3125 C 331.714844 203.3125 281.328125 202.191406 228.367188 242.558594 C 228.367188 242.558594 175.402344 340.121094 175.402344 460.476562 C 175.402344 460.476562 209.375 514.675781 290.65625 517.292969 L 306.371094 491.128906 C 259.222656 475.429688 243.507812 438.796875 243.507812 438.796875 C 243.507812 438.796875 301.136719 480.660156 390.195312 480.660156 Z M 390.195312 480.660156 " fill-opacity="1" fill-rule="nonzero"/><path fill="#454fbf" d="M 494.96875 386.464844 C 494.96875 387.835938 494.90625 389.203125 494.777344 390.570312 C 494.652344 391.933594 494.464844 393.289062 494.214844 394.632812 C 493.960938 395.976562 493.648438 397.304688 493.277344 398.617188 C 492.902344 399.929688 492.46875 401.21875 491.976562 402.488281 C 491.484375 403.753906 490.9375 404.992188 490.328125 406.199219 C 489.722656 407.410156 489.0625 408.585938 488.347656 409.722656 C 487.632812 410.863281 486.867188 411.964844 486.050781 413.023438 C 485.234375 414.085938 484.371094 415.097656 483.460938 416.070312 C 482.550781 417.039062 481.597656 417.957031 480.605469 418.828125 C 479.609375 419.699219 478.578125 420.511719 477.507812 421.273438 C 476.4375 422.035156 475.335938 422.742188 474.199219 423.386719 C 473.066406 424.035156 471.902344 424.617188 470.714844 425.144531 C 469.523438 425.667969 468.316406 426.128906 467.082031 426.527344 C 465.851562 426.925781 464.605469 427.257812 463.34375 427.527344 C 462.082031 427.792969 460.808594 427.996094 459.53125 428.128906 C 458.25 428.261719 456.964844 428.332031 455.679688 428.332031 C 454.390625 428.332031 453.109375 428.261719 451.828125 428.128906 C 450.546875 427.996094 449.273438 427.792969 448.011719 427.527344 C 446.75 427.257812 445.503906 426.925781 444.273438 426.527344 C 443.042969 426.128906 441.832031 425.667969 440.640625 425.144531 C 439.453125 424.617188 438.292969 424.035156 437.15625 423.386719 C 436.023438 422.742188 434.917969 422.035156 433.851562 421.273438 C 432.78125 420.511719 431.746094 419.699219 430.753906 418.828125 C 429.757812 417.957031 428.804688 417.039062 427.894531 416.070312 C 426.984375 415.097656 426.121094 414.085938 425.304688 413.023438 C 424.488281 411.964844 423.722656 410.863281 423.007812 409.722656 C 422.292969 408.585938 421.632812 407.410156 421.027344 406.199219 C 420.421875 404.992188 419.871094 403.753906 419.378906 402.488281 C 418.886719 401.21875 418.453125 399.929688 418.078125 398.617188 C 417.707031 397.304688 417.394531 395.976562 417.144531 394.632812 C 416.890625 393.289062 416.703125 391.933594 416.578125 390.570312 C 416.453125 389.203125 416.386719 387.835938 416.386719 386.464844 C 416.386719 385.09375 416.453125 383.726562 416.578125 382.363281 C 416.703125 380.996094 416.890625 379.644531 417.144531 378.296875 C 417.394531 376.953125 417.707031 375.625 418.078125 374.3125 C 418.453125 373 418.886719 371.710938 419.378906 370.445312 C 419.871094 369.179688 420.421875 367.941406 421.027344 366.730469 C 421.632812 365.519531 422.292969 364.347656 423.007812 363.207031 C 423.722656 362.066406 424.488281 360.964844 425.304688 359.90625 C 426.121094 358.847656 426.984375 357.832031 427.894531 356.863281 C 428.804688 355.894531 429.757812 354.972656 430.753906 354.105469 C 431.746094 353.234375 432.78125 352.417969 433.851562 351.65625 C 434.917969 350.894531 436.023438 350.191406 437.15625 349.542969 C 438.292969 348.898438 439.453125 348.3125 440.640625 347.789062 C 441.832031 347.261719 443.042969 346.800781 444.273438 346.402344 C 445.503906 346.003906 446.75 345.671875 448.011719 345.40625 C 449.273438 345.136719 450.546875 344.9375 451.828125 344.800781 C 453.109375 344.667969 454.390625 344.601562 455.679688 344.601562 C 456.964844 344.601562 458.25 344.667969 459.53125 344.800781 C 460.808594 344.9375 462.082031 345.136719 463.34375 345.40625 C 464.605469 345.671875 465.851562 346.003906 467.082031 346.402344 C 468.316406 346.800781 469.523438 347.261719 470.714844 347.789062 C 471.902344 348.3125 473.066406 348.898438 474.199219 349.542969 C 475.335938 350.191406 476.4375 350.894531 477.507812 351.65625 C 478.578125 352.417969 479.609375 353.234375 480.605469 354.105469 C 481.597656 354.972656 482.550781 355.894531 483.460938 356.863281 C 484.371094 357.832031 485.234375 358.847656 486.050781 359.90625 C 486.867188 360.964844 487.632812 362.066406 488.347656 363.207031 C 489.0625 364.347656 489.722656 365.519531 490.328125 366.730469 C 490.9375 367.941406 491.484375 369.179688 491.976562 370.445312 C 492.46875 371.710938 492.902344 373 493.277344 374.3125 C 493.648438 375.625 493.960938 376.953125 494.214844 378.296875 C 494.464844 379.644531 494.652344 380.996094 494.777344 382.363281 C 494.90625 383.726562 494.96875 385.09375 494.96875 386.464844 Z M 494.96875 386.464844 " fill-opacity="1" fill-rule="nonzero"/><path fill="#454fbf" d="M 364 386.464844 C 364 387.835938 363.9375 389.203125 363.8125 390.570312 C 363.6875 391.933594 363.496094 393.289062 363.246094 394.632812 C 362.996094 395.976562 362.683594 397.304688 362.308594 398.617188 C 361.9375 399.929688 361.503906 401.21875 361.011719 402.488281 C 360.519531 403.753906 359.96875 404.992188 359.363281 406.199219 C 358.753906 407.410156 358.09375 408.585938 357.378906 409.722656 C 356.664062 410.863281 355.898438 411.964844 355.082031 413.023438 C 354.265625 414.085938 353.402344 415.097656 352.492188 416.070312 C 351.582031 417.039062 350.632812 417.957031 349.636719 418.828125 C 348.640625 419.699219 347.609375 420.511719 346.539062 421.273438 C 345.46875 422.035156 344.367188 422.742188 343.230469 423.386719 C 342.097656 424.035156 340.9375 424.617188 339.746094 425.144531 C 338.558594 425.667969 337.347656 426.128906 336.117188 426.527344 C 334.886719 426.925781 333.636719 427.257812 332.375 427.527344 C 331.113281 427.792969 329.84375 427.996094 328.5625 428.128906 C 327.28125 428.261719 325.996094 428.332031 324.710938 428.332031 C 323.425781 428.332031 322.140625 428.261719 320.859375 428.128906 C 319.578125 427.996094 318.308594 427.792969 317.046875 427.527344 C 315.785156 427.257812 314.535156 426.925781 313.304688 426.527344 C 312.074219 426.128906 310.863281 425.667969 309.675781 425.144531 C 308.488281 424.617188 307.324219 424.035156 306.191406 423.386719 C 305.054688 422.742188 303.953125 422.035156 302.882812 421.273438 C 301.8125 420.511719 300.78125 419.699219 299.785156 418.828125 C 298.789062 417.957031 297.839844 417.039062 296.929688 416.070312 C 296.019531 415.097656 295.15625 414.085938 294.339844 413.023438 C 293.523438 411.964844 292.757812 410.863281 292.042969 409.722656 C 291.328125 408.585938 290.667969 407.410156 290.058594 406.199219 C 289.453125 404.992188 288.902344 403.753906 288.410156 402.488281 C 287.917969 401.21875 287.484375 399.929688 287.113281 398.617188 C 286.738281 397.304688 286.425781 395.976562 286.175781 394.632812 C 285.925781 393.289062 285.734375 391.933594 285.609375 390.570312 C 285.484375 389.203125 285.421875 387.835938 285.421875 386.464844 C 285.421875 385.09375 285.484375 383.726562 285.609375 382.363281 C 285.734375 380.996094 285.925781 379.644531 286.175781 378.296875 C 286.425781 376.953125 286.738281 375.625 287.113281 374.3125 C 287.484375 373 287.917969 371.710938 288.410156 370.445312 C 288.902344 369.179688 289.453125 367.941406 290.058594 366.730469 C 290.667969 365.519531 291.328125 364.347656 292.042969 363.207031 C 292.757812 362.066406 293.523438 360.964844 294.339844 359.90625 C 295.15625 358.847656 296.019531 357.832031 296.929688 356.863281 C 297.839844 355.894531 298.789062 354.972656 299.785156 354.105469 C 300.78125 353.234375 301.8125 352.417969 302.882812 351.65625 C 303.953125 350.894531 305.054688 350.191406 306.191406 349.542969 C 307.324219 348.898438 308.488281 348.3125 309.675781 347.789062 C 310.863281 347.261719 312.074219 346.800781 313.304688 346.402344 C 314.535156 346.003906 315.785156 345.671875 317.046875 345.40625 C 318.308594 345.136719 319.578125 344.9375 320.859375 344.800781 C 322.140625 344.667969 323.425781 344.601562 324.710938 344.601562 C 325.996094 344.601562 327.28125 344.667969 328.5625 344.800781 C 329.84375 344.9375 331.113281 345.136719 332.375 345.40625 C 333.636719 345.671875 334.886719 346.003906 336.117188 346.402344 C 337.347656 346.800781 338.558594 347.261719 339.746094 347.789062 C 340.9375 348.3125 342.097656 348.898438 343.230469 349.542969 C 344.367188 350.191406 345.46875 350.894531 346.539062 351.65625 C 347.609375 352.417969 348.640625 353.234375 349.636719 354.105469 C 350.632812 354.972656 351.582031 355.894531 352.492188 356.863281 C 353.402344 357.832031 354.265625 358.847656 355.082031 359.90625 C 355.898438 360.964844 356.664062 362.066406 357.378906 363.207031 C 358.09375 364.347656 358.753906 365.519531 359.363281 366.730469 C 359.96875 367.941406 360.519531 369.179688 361.011719 370.445312 C 361.503906 371.710938 361.9375 373 362.308594 374.3125 C 362.683594 375.625 362.996094 376.953125 363.246094 378.296875 C 363.496094 379.644531 363.6875 380.996094 363.8125 382.363281 C 363.9375 383.726562 364 385.09375 364 386.464844 Z M 364 386.464844 " fill-opacity="1" fill-rule="nonzero"/><path fill="#454fbf" d="M 489.730469 522.527344 C 487.890625 522.527344 486.183594 521.5625 485.238281 519.988281 L 469.523438 493.824219 C 468.707031 492.460938 468.550781 490.804688 469.105469 489.3125 C 469.648438 487.824219 470.855469 486.667969 472.359375 486.160156 C 495.203125 478.554688 510.3125 465.777344 519.617188 455.117188 C 495.082031 467.8125 449.695312 485.894531 390.195312 485.894531 C 330.78125 485.894531 285.445312 467.871094 260.886719 455.183594 C 270.222656 465.839844 285.320312 478.605469 308.03125 486.160156 C 309.535156 486.664062 310.738281 487.820312 311.285156 489.3125 C 311.835938 490.804688 311.683594 492.460938 310.863281 493.824219 L 295.148438 519.988281 C 294.167969 521.617188 292.285156 522.625 290.488281 522.527344 C 207.375 519.847656 172.417969 465.5625 170.964844 463.257812 C 170.449219 462.425781 170.167969 461.460938 170.167969 460.476562 C 170.167969 340.179688 223.226562 241.046875 223.761719 240.0625 C 224.113281 239.410156 224.601562 238.84375 225.1875 238.398438 C 279.007812 197.371094 329.671875 198.035156 331.824219 198.078125 C 333.035156 198.105469 334.203125 198.550781 335.121094 199.339844 L 341.214844 204.574219 C 342.660156 205.8125 343.3125 207.738281 342.929688 209.601562 C 342.542969 211.464844 341.175781 212.972656 339.351562 213.539062 C 316.359375 220.6875 298.367188 229.691406 284.875 238.128906 C 318.210938 225.296875 352.980469 219.003906 390.195312 219.003906 C 427.351562 219.003906 462.070312 225.269531 495.34375 238.066406 C 481.851562 229.640625 463.886719 220.644531 441.027344 213.539062 C 439.203125 212.972656 437.839844 211.464844 437.449219 209.601562 C 437.066406 207.738281 437.71875 205.8125 439.164062 204.574219 L 445.257812 199.339844 C 446.175781 198.550781 447.339844 198.105469 448.554688 198.078125 C 450.695312 198.046875 501.363281 197.367188 555.191406 238.398438 C 555.777344 238.84375 556.265625 239.414062 556.617188 240.0625 C 557.164062 241.046875 610.21875 340.179688 610.21875 460.476562 C 610.21875 461.460938 609.941406 462.425781 609.421875 463.257812 C 607.972656 465.5625 573.015625 519.847656 489.898438 522.527344 C 489.839844 522.527344 489.789062 522.527344 489.730469 522.527344 Z M 481.777344 493.886719 L 492.617188 511.933594 C 561.269531 508.535156 594.300781 466.480469 599.730469 458.867188 C 599.285156 348.222656 553.316406 256.40625 547.921875 246.023438 C 512.753906 219.527344 478.808594 211.753906 461.210938 209.476562 C 512.371094 229.210938 534.6875 256.324219 535.710938 257.585938 C 537.285156 259.535156 537.253906 262.324219 535.636719 264.242188 C 534.019531 266.15625 531.265625 266.660156 529.078125 265.4375 C 485.632812 241.242188 440.203125 229.472656 390.195312 229.472656 C 340.1875 229.472656 294.757812 241.242188 251.300781 265.445312 C 249.117188 266.664062 246.359375 266.160156 244.742188 264.246094 C 243.125 262.332031 243.097656 259.542969 244.667969 257.589844 C 245.679688 256.328125 267.980469 229.242188 319.074219 209.511719 C 301.417969 211.832031 267.453125 219.660156 232.457031 246.023438 C 227.066406 256.421875 181.09375 348.34375 180.648438 458.871094 C 186.078125 466.492188 219.109375 508.539062 287.761719 511.941406 L 298.601562 493.890625 C 254.503906 476.695312 239.335938 442.375 238.6875 440.863281 C 237.753906 438.699219 238.386719 436.183594 240.230469 434.714844 C 242.074219 433.246094 244.679688 433.1875 246.582031 434.570312 C 247.152344 434.972656 304.039062 475.429688 390.195312 475.429688 C 476.351562 475.429688 533.238281 434.972656 533.796875 434.5625 C 535.703125 433.183594 538.308594 433.238281 540.148438 434.710938 C 541.992188 436.179688 542.625 438.691406 541.691406 440.859375 C 541.042969 442.375 525.875 476.695312 481.777344 493.886719 Z M 481.777344 493.886719 " fill-opacity="1" fill-rule="nonzero"/><path fill="#454fbf" d="M 455.679688 433.5625 C 431.125 433.5625 411.148438 412.433594 411.148438 386.464844 C 411.148438 360.5 431.125 339.367188 455.679688 339.367188 C 480.230469 339.367188 500.207031 360.5 500.207031 386.464844 C 500.207031 412.433594 480.230469 433.5625 455.679688 433.5625 Z M 455.679688 349.832031 C 436.902344 349.832031 421.625 366.265625 421.625 386.464844 C 421.625 406.664062 436.902344 423.097656 455.679688 423.097656 C 474.453125 423.097656 489.730469 406.664062 489.730469 386.464844 C 489.730469 366.265625 474.453125 349.832031 455.679688 349.832031 Z M 455.679688 349.832031 " fill-opacity="1" fill-rule="nonzero"/><path fill="#454fbf" d="M 324.710938 433.5625 C 300.15625 433.5625 280.183594 412.433594 280.183594 386.464844 C 280.183594 360.5 300.15625 339.367188 324.710938 339.367188 C 349.265625 339.367188 369.238281 360.5 369.238281 386.464844 C 369.238281 412.433594 349.265625 433.5625 324.710938 433.5625 Z M 324.710938 349.832031 C 305.9375 349.832031 290.660156 366.265625 290.660156 386.464844 C 290.660156 406.664062 305.9375 423.097656 324.710938 423.097656 C 343.488281 423.097656 358.761719 406.664062 358.761719 386.464844 C 358.761719 366.265625 343.488281 349.832031 324.710938 349.832031 Z M 324.710938 349.832031 " fill-opacity="1" fill-rule="nonzero"/><path fill="#454fbf" d="M 518.542969 283.222656 C 518.113281 283.222656 517.679688 283.117188 517.28125 282.898438 C 516.296875 282.351562 515.300781 281.859375 514.308594 281.367188 L 512.09375 280.25 C 510.808594 279.578125 510.3125 278 510.984375 276.714844 C 511.660156 275.441406 513.257812 274.941406 514.519531 275.613281 L 516.640625 276.683594 C 517.699219 277.214844 518.757812 277.738281 519.804688 278.316406 C 521.074219 279.015625 521.535156 280.605469 520.835938 281.871094 C 520.359375 282.730469 519.464844 283.222656 518.542969 283.222656 Z M 518.542969 283.222656 " fill-opacity="1" fill-rule="nonzero"/><path fill="#454fbf" d="M 502.828125 275.234375 C 502.453125 275.234375 502.066406 275.15625 501.710938 274.984375 C 493.574219 271.160156 485.089844 267.738281 475.777344 264.519531 C 474.40625 264.046875 473.6875 262.554688 474.15625 261.191406 C 474.625 259.828125 476.128906 259.113281 477.488281 259.574219 C 486.984375 262.847656 495.632812 266.34375 503.941406 270.253906 C 505.253906 270.871094 505.8125 272.429688 505.195312 273.734375 C 504.75 274.679688 503.8125 275.234375 502.828125 275.234375 Z M 502.828125 275.234375 " fill-opacity="1" fill-rule="nonzero"/><path fill="#454fbf" d="M 261.847656 283.222656 C 260.925781 283.222656 260.023438 282.730469 259.550781 281.867188 C 258.855469 280.597656 259.320312 279.007812 260.585938 278.3125 C 301.222656 256.007812 343.613281 245.171875 390.195312 245.171875 C 416.921875 245.171875 442.011719 248.777344 466.90625 256.191406 C 468.292969 256.605469 469.078125 258.058594 468.671875 259.449219 C 468.257812 260.828125 466.792969 261.628906 465.410156 261.207031 C 441.003906 253.9375 416.402344 250.40625 390.195312 250.40625 C 344.519531 250.40625 302.949219 261.03125 263.109375 282.890625 C 262.707031 283.113281 262.277344 283.222656 261.847656 283.222656 Z M 261.847656 283.222656 " fill-opacity="1" fill-rule="nonzero"/></svg>